M48
; DRILL file {KiCad (6.0.8)} date nie, 13 lis 2022, 19:54:51
; FORMAT={-:-/ absolute / inch / decimal}
; #@! TF.CreationDate,2022-11-13T19:54:51+01:00
; #@! TF.GenerationSoftware,Kicad,Pcbnew,(6.0.8)
; #@! TF.FileFunction,Plated,1,2,PTH
FMAT,2
INCH
; #@! TA.AperFunction,Plated,PTH,ComponentDrill
T1C0.0295
; #@! TA.AperFunction,Plated,PTH,ViaDrill
T2C0.0315
; #@! TA.AperFunction,Plated,PTH,ComponentDrill
T3C0.0315
; #@! TA.AperFunction,Plated,PTH,ComponentDrill
T4C0.0354
; #@! TA.AperFunction,Plated,PTH,ComponentDrill
T5C0.0394
%
G90
G05
T1
X7.84Y-5.85
X7.89Y-5.85
X7.94Y-5.85
T2
X5.85Y-3.8
X6.15Y-3.8
X7.55Y-3.04
X7.6Y-4.34
X7.6Y-4.68
X7.68Y-4.34
X7.68Y-4.5
X7.75Y-3.04
X7.77Y-4.34
X7.77Y-4.6
X7.81Y-3.66
X7.81Y-3.84
X7.88Y-3.66
X7.88Y-3.84
X7.95Y-3.66
X7.95Y-3.84
X8.16Y-4.04
X8.4Y-4.04
X8.64Y-3.68
X8.64Y-3.84
X9.0Y-3.7
X9.3Y-3.7
X9.7Y-3.87
X9.7Y-4.15
T3
X5.57Y-3.9316
X5.57Y-4.03
X5.72Y-3.54
X5.72Y-3.84
X5.77Y-4.56
X5.77Y-4.86
X5.8006Y-3.9296
X5.8006Y-4.2296
X5.88Y-4.56
X5.88Y-4.86
X5.9006Y-3.9296
X5.9006Y-4.2296
X5.99Y-4.56
X5.99Y-4.86
X6.0006Y-3.9296
X6.0006Y-4.2296
X6.1Y-4.56
X6.1Y-4.86
X6.1006Y-3.9296
X6.1006Y-4.2296
X6.11Y-5.04
X6.11Y-5.64
X6.2006Y-3.9296
X6.2006Y-4.2296
X6.21Y-4.56
X6.21Y-4.86
X6.21Y-5.04
X6.21Y-5.64
X6.2781Y-3.57
X6.3006Y-3.9296
X6.3006Y-4.2296
X6.31Y-5.04
X6.31Y-5.64
X6.32Y-4.56
X6.32Y-4.86
X6.3766Y-3.57
X6.4006Y-3.9296
X6.4006Y-4.2296
X6.41Y-5.04
X6.41Y-5.64
X6.43Y-4.56
X6.43Y-4.86
X6.5006Y-3.9296
X6.5006Y-4.2296
X6.51Y-5.04
X6.51Y-5.64
X6.52Y-3.38
X6.54Y-4.56
X6.54Y-4.86
X6.55Y-3.78
X6.62Y-3.49
X6.66Y-5.46
X6.66Y-5.76
X6.72Y-3.6
X6.72Y-4.12
X6.72Y-4.42
X6.77Y-5.71
X6.77Y-6.01
X6.82Y-3.38
X6.85Y-3.78
X6.88Y-5.71
X6.88Y-6.01
X6.92Y-3.49
X6.94Y-3.8934
X6.94Y-3.9919
X6.96Y-4.1716
X6.96Y-4.27
X7.02Y-3.6
X7.02Y-5.43
X7.02Y-5.53
X7.02Y-5.63
X7.02Y-5.73
X7.02Y-5.83
X7.04Y-5.94
X7.1504Y-3.6004
X7.1504Y-3.7004
X7.1504Y-3.8004
X7.1504Y-3.9004
X7.1504Y-4.0004
X7.1504Y-4.1004
X7.1504Y-4.2004
X7.1504Y-4.3004
X7.1504Y-4.4004
X7.1504Y-4.5004
X7.1504Y-4.6004
X7.1504Y-4.7004
X7.1504Y-4.8004
X7.1504Y-4.9004
X7.34Y-5.94
X7.3434Y-3.41
X7.4Y-2.8
X7.4Y-3.1
X7.44Y-5.94
X7.4419Y-3.41
X7.4504Y-3.6004
X7.4504Y-3.7004
X7.4504Y-3.8004
X7.4504Y-3.9004
X7.4504Y-4.0004
X7.4504Y-4.1004
X7.4504Y-4.2004
X7.4504Y-4.3004
X7.4504Y-4.4004
X7.4504Y-4.5004
X7.4504Y-4.6004
X7.4504Y-4.7004
X7.4504Y-4.8004
X7.4504Y-4.9004
X7.57Y-3.5
X7.5981Y-4.05
X7.6034Y-3.76
X7.62Y-5.43
X7.62Y-5.53
X7.62Y-5.63
X7.62Y-5.73
X7.62Y-5.83
X7.6966Y-4.05
X7.7019Y-3.76
X7.74Y-5.94
X7.87Y-3.5
X7.99Y-5.39
X7.99Y-5.69
X8.07Y-4.56
X8.07Y-4.86
X8.11Y-3.11
X8.11Y-3.41
X8.11Y-5.04
X8.11Y-5.64
X8.18Y-4.56
X8.18Y-4.86
X8.21Y-5.04
X8.21Y-5.64
X8.24Y-3.23
X8.24Y-3.34
X8.29Y-4.56
X8.29Y-4.86
X8.31Y-5.04
X8.31Y-5.64
X8.4Y-3.4916
X8.4Y-3.59
X8.4Y-4.56
X8.4Y-4.86
X8.41Y-5.04
X8.41Y-5.64
X8.51Y-4.56
X8.51Y-4.86
X8.51Y-5.04
X8.51Y-5.64
X8.5206Y-3.9296
X8.5206Y-4.2296
X8.54Y-3.23
X8.54Y-3.34
X8.62Y-4.56
X8.62Y-4.86
X8.6206Y-3.9296
X8.6206Y-4.2296
X8.7206Y-3.9296
X8.7206Y-4.2296
X8.73Y-4.56
X8.73Y-4.86
X8.8206Y-3.9296
X8.8206Y-4.2296
X8.84Y-4.56
X8.84Y-4.86
X8.9206Y-3.9296
X8.9206Y-4.2296
X9.0206Y-3.9296
X9.0206Y-4.2296
X9.1206Y-3.9296
X9.1206Y-4.2296
X9.2206Y-3.9296
X9.2206Y-4.2296
X9.46Y-4.04
X9.46Y-4.1384
X9.6Y-3.23
X9.6Y-3.53
T4
X4.7849Y-2.8485
X4.7849Y-3.0454
X5.0212Y-2.8485
X5.0212Y-3.0454
X8.7085Y-3.2288
X8.7085Y-3.4651
X8.9054Y-3.2288
X8.9054Y-3.4651
X9.6Y-2.8516
X9.6Y-3.0484
X9.8362Y-2.8516
X9.8362Y-3.0484
T5
X6.62Y-3.06
X6.72Y-3.06
X6.82Y-3.06
X6.92Y-3.06
X7.55Y-3.17
X7.55Y-3.27
X7.65Y-3.17
X7.65Y-3.27
X7.75Y-3.17
X7.75Y-3.27
X7.85Y-3.17
X7.85Y-3.27
X7.95Y-3.17
X7.95Y-3.27
X8.0502Y-3.6102
X8.0502Y-3.7102
X8.1502Y-3.6102
X8.1502Y-3.7102
T0
M30
